<svg width="20" height="20" viewBox="0 0 20 20" fill="none" xmlns="http://www.w3.org/2000/svg">
<path fill-rule="evenodd" clip-rule="evenodd" d="M19.8524 16.6787C19.369 15.3903 18.6278 14.2144 17.6742 13.2229C16.7206 12.2313 15.5747 11.4451 14.3068 10.9125C14.9963 10.3457 15.5531 9.63447 15.9379 8.82884C16.3227 8.02321 16.5261 7.14286 16.5338 6.24996C16.5089 4.68511 15.9054 3.18503 14.8398 2.03949C13.7743 0.893949 12.3224 0.184225 10.7646 0.0474582C10.2544 -0.0158194 9.73845 -0.0158194 9.2283 0.0474582C7.67136 0.185393 6.22063 0.895631 5.15615 2.04105C4.09166 3.18648 3.48885 4.68589 3.46406 6.24996C3.47147 7.14291 3.67478 8.02333 4.0596 8.82899C4.44442 9.63466 5.00138 10.3459 5.69108 10.9125C4.42289 11.4449 3.27673 12.231 2.32291 13.2226C1.36909 14.2141 0.627688 15.3902 0.14418 16.6787C0.00779153 17.0554 -0.032697 17.4602 0.0263985 17.8565C0.085494 18.2529 0.242307 18.6282 0.482659 18.9487C0.732073 19.2779 1.05477 19.5443 1.4251 19.7268C1.79544 19.9093 2.20321 20.0028 2.61599 19.9999H17.3906C17.803 20.0027 18.2104 19.9091 18.5803 19.7266C18.9502 19.5441 19.2725 19.2777 19.5215 18.9487C19.7612 18.6278 19.917 18.2522 19.9748 17.8557C20.0326 17.4593 19.9905 17.0547 19.8524 16.6787ZM6.07827 6.24996C6.09554 5.30216 6.46567 4.39493 7.11624 3.70594C7.7668 3.01694 8.65092 2.59579 9.59548 2.52495C9.86466 2.49161 10.1369 2.49161 10.4061 2.52495C11.1165 2.63395 11.7808 2.94453 12.3202 3.41984C12.8596 3.89514 13.2515 4.51526 13.4495 5.20668C13.6474 5.8981 13.6431 6.63182 13.4371 7.32089C13.2311 8.00996 12.832 8.62547 12.2872 9.09446C11.7423 9.56345 11.0745 9.86624 10.3629 9.96695C9.65125 10.0677 8.92568 9.96207 8.27221 9.66269C7.61874 9.36332 7.06477 8.88272 6.67591 8.27785C6.28705 7.67297 6.07965 6.9692 6.07827 6.24996ZM2.61348 17.4999C3.20541 16.0238 4.22535 14.7588 5.54193 13.8678C6.85851 12.9768 8.41148 12.5007 10.0008 12.5007C11.5902 12.5007 13.1431 12.9768 14.4597 13.8678C15.7763 14.7588 16.7962 16.0238 17.3881 17.4999H2.61599H2.61348Z" fill="#22262A"/>
</svg>
