<svg width="69" height="80" viewBox="0 0 69 80" fill="none" xmlns="http://www.w3.org/2000/svg">
<path d="M55.588 17.5076L51.8164 22.3516C57.1624 26.4955 60.8467 32.4178 62.201 39.0449C63.5554 45.672 62.4902 52.565 59.1986 58.4741C55.907 64.3832 50.607 68.9172 44.2595 71.2541C37.9119 73.5909 30.9371 73.5759 24.5997 71.2116C18.2623 68.8474 12.9819 64.2906 9.71585 58.3673C6.44981 52.444 5.41439 45.5465 6.79734 38.9253C8.18028 32.3042 11.89 26.3978 17.2539 22.277C22.6179 18.1563 29.2808 16.094 36.0347 16.4641L30.7281 22.031L34.6644 25.7875L43.0411 16.9871L46.7938 13.0458L42.8638 9.30438L34.0697 0.926392L30.3144 4.86772L36.0423 10.324C27.2568 9.92391 18.6518 12.9041 11.9955 18.652C5.33925 24.3999 1.13739 32.4791 0.2534 41.2291C-0.630585 49.9791 1.87045 58.7354 7.24255 65.6986C12.6146 72.6617 20.4497 77.3027 29.1377 78.668C30.9304 78.9513 32.7425 79.0938 34.5575 79.0941C41.7226 79.0763 48.7035 76.8224 54.5263 72.6469C60.349 68.4714 64.7232 62.5825 67.0387 55.8018C69.3542 49.0211 69.4954 41.6867 67.4427 34.8219C65.39 27.9571 61.2457 21.9042 55.588 17.5076Z" fill="#FF6875"/>
<path d="M37.8544 62.2313V58.6985C42.0434 58.2308 46.118 55.5857 46.118 50.5619C46.118 43.7366 39.7716 42.9546 35.1363 42.3838C32.1731 42.0293 29.9038 41.6182 29.9038 39.8229C29.9038 37.3261 33.424 37.0571 34.9326 37.0571C37.178 37.0571 39.5742 38.1131 40.3889 39.4596L40.6252 39.8518L45.2769 37.697L45.0468 37.228C44.3564 35.863 43.3362 34.692 42.0787 33.8211C40.8212 32.9501 39.3662 32.4069 37.8456 32.2407V29.1292H32.4019V32.2256C27.3266 32.98 24.3118 35.7911 24.3118 39.8216C24.3118 46.393 30.2785 47.0594 34.6322 47.5484C38.5119 48.006 40.3172 48.964 40.3172 50.5657C40.3172 53.6169 36.0918 53.8545 34.7969 53.8545C31.9141 53.8545 29.1394 52.4163 28.3298 50.5053L28.1299 50.0339L23.0785 52.1749L23.2796 52.6464C24.777 56.1527 28.0092 58.349 32.4082 58.8682V62.2313H37.8544Z" fill="#FF6875"/>
</svg>
