<svg width="39" height="26" viewBox="0 0 39 26" fill="none" xmlns="http://www.w3.org/2000/svg">
<path d="M1.76475 0.188232H36.7648C36.9881 0.192523 37.2084 0.240837 37.4131 0.330322C37.6177 0.419807 37.8028 0.548678 37.9576 0.709717C38.1124 0.870756 38.2339 1.06075 38.3153 1.2688C38.3966 1.47685 38.4363 1.69878 38.4317 1.92212V23.5964C38.4363 23.8198 38.3966 24.0417 38.3153 24.2498C38.2339 24.4578 38.1124 24.6478 37.9576 24.8088C37.8028 24.9699 37.6177 25.0987 37.4131 25.1882C37.2084 25.2777 36.9881 25.326 36.7648 25.3303H1.76475C1.54141 25.326 1.32112 25.2777 1.11644 25.1882C0.911755 25.0987 0.726697 24.9699 0.57188 24.8088C0.417064 24.6478 0.295446 24.4578 0.214092 24.2498C0.132738 24.0417 0.09325 23.8198 0.097759 23.5964V1.92212C0.09325 1.69878 0.132738 1.47685 0.214092 1.2688C0.295446 1.06075 0.417064 0.870756 0.57188 0.709717C0.726697 0.548678 0.911755 0.419807 1.11644 0.330322C1.32112 0.240837 1.54141 0.192523 1.76475 0.188232Z" fill="url(#paint0_linear_0_387)"/>
<defs>
<linearGradient id="paint0_linear_0_387" x1="19.2648" y1="25.3303" x2="19.2648" y2="0.188232" gradientUnits="userSpaceOnUse">
<stop stop-color="#E59703"/>
<stop offset="0.231" stop-color="#E59703"/>
<stop offset="0.234" stop-color="white"/>
<stop offset="0.761" stop-color="white"/>
<stop offset="0.766" stop-color="#5457BB"/>
<stop offset="1" stop-color="#5457BB"/>
</linearGradient>
</defs>
</svg>
