<svg width="39" height="26" viewBox="0 0 39 26" fill="none" xmlns="http://www.w3.org/2000/svg">
<path d="M1.66172 0.385986H36.6438C36.867 0.390407 37.0872 0.439022 37.2917 0.528564C37.4963 0.618107 37.6812 0.746933 37.8359 0.907959C37.9906 1.06898 38.1122 1.25906 38.1935 1.46704C38.2748 1.67502 38.3142 1.8971 38.3097 2.12036V23.7961C38.3185 24.2469 38.148 24.6826 37.8356 25.0076C37.5231 25.3326 37.0945 25.5201 36.6438 25.5291H1.66172C1.211 25.5201 0.782255 25.3326 0.469829 25.0076C0.157403 24.6826 -0.0131316 24.2469 -0.00429216 23.7961V2.12036C-0.008802 1.8971 0.0307491 1.67502 0.112041 1.46704C0.193333 1.25906 0.314752 1.06898 0.469463 0.907959C0.624174 0.746933 0.809087 0.618107 1.01365 0.528564C1.21822 0.439022 1.43846 0.390407 1.66172 0.385986Z" fill="#353A40"/>
</svg>
