<svg width="102" height="66" viewBox="0 0 102 66" fill="none" xmlns="http://www.w3.org/2000/svg">
<path d="M101.329 33.9212C101.329 33.9023 101.329 33.8835 101.329 33.8646C101.32 33.2568 101.072 32.6769 100.639 32.2509C100.205 31.8248 99.6212 31.587 99.0133 31.5891H98.4048L88.9934 13.4099C88.7975 13.0327 88.5015 12.7169 88.1377 12.497C87.7739 12.2772 87.3566 12.162 86.9316 12.164H70.8734L71.4856 7.30748C71.5859 6.37885 71.4879 5.43951 71.1981 4.55157C70.9083 3.66364 70.4333 2.84735 69.8045 2.15666C69.1757 1.46598 68.4075 0.916627 67.5506 0.544955C66.6937 0.173283 65.7677 -0.0122447 64.8338 0.000626712H14.9933C14.3844 0.00388188 13.7982 0.232589 13.3481 0.642608C12.8979 1.05263 12.6155 1.61489 12.5556 2.22084L12.0527 6.22126H40.4529C40.8879 6.21901 41.3189 6.3045 41.7202 6.47263C42.1214 6.64077 42.4847 6.88807 42.7882 7.19978C43.0917 7.51149 43.3292 7.88119 43.4865 8.28679C43.6439 8.69238 43.7178 9.12555 43.704 9.56038C43.6763 10.4522 43.3038 11.2985 42.6649 11.9213C42.0259 12.5441 41.1703 12.8947 40.2781 12.8995H30.8063V12.9133H2.99705C2.36675 12.9166 1.76223 13.164 1.31048 13.6035C0.858733 14.0431 0.594908 14.6406 0.574426 15.2706C0.564271 15.5783 0.616325 15.8849 0.72747 16.172C0.838615 16.4592 1.00656 16.7209 1.22126 16.9416C1.43596 17.1623 1.69298 17.3374 1.97694 17.4564C2.26091 17.5753 2.56596 17.6358 2.87385 17.6341H39.6973C40.5344 17.7613 41.2958 18.191 41.8375 18.8418C42.3791 19.4926 42.6634 20.3193 42.6366 21.1656C42.6066 22.1165 42.2106 23.0191 41.5314 23.6852C40.8522 24.3513 39.942 24.7296 38.9907 24.7411H13.6091C12.9711 24.7444 12.3593 24.9953 11.9026 25.4409C11.446 25.8865 11.1802 26.492 11.1613 27.1298C11.1508 27.4407 11.2032 27.7505 11.3153 28.0406C11.4275 28.3308 11.597 28.5954 11.8139 28.8184C12.0307 29.0415 12.2903 29.2184 12.5772 29.3387C12.8641 29.459 13.1723 29.5202 13.4834 29.5185H38.5721C39.4172 29.6349 40.1896 30.0595 40.7409 30.7105C41.2922 31.3616 41.5836 32.1934 41.5592 33.0462C41.5293 34.0016 41.13 34.9082 40.4453 35.5752C39.7607 36.2423 38.844 36.6178 37.8882 36.6229H9.10957H6.69071C6.05269 36.6262 5.44087 36.8771 4.98424 37.3227C4.52761 37.7683 4.26183 38.3738 4.24294 39.0116C4.23244 39.3225 4.28483 39.6323 4.39695 39.9225C4.50908 40.2126 4.67864 40.4772 4.89548 40.7002C5.11231 40.9233 5.37195 41.1003 5.65882 41.2205C5.9457 41.3408 6.25392 41.402 6.56499 41.4003H8.65195L7.83602 49.9417C7.73594 50.8702 7.83409 51.8094 8.12397 52.6972C8.41386 53.585 8.88888 54.4011 9.51763 55.0917C10.1464 55.7822 10.9145 56.3314 11.7713 56.703C12.6281 57.0746 13.5541 57.2601 14.4879 57.2473H16.2894C16.7122 59.6674 17.9778 61.8599 19.8621 63.4363C21.7465 65.0128 24.1279 65.8715 26.5847 65.8604C29.0836 65.8429 31.5036 64.9833 33.4534 63.4203C35.4033 61.8574 36.7691 59.6825 37.33 57.2473H59.7974C61.5908 57.2313 63.321 56.5826 64.6829 55.4155C65.9356 56.6089 67.6046 57.2661 69.3345 57.2473H69.7042C70.1269 59.6674 71.3925 61.8599 73.2768 63.4363C75.1612 65.0128 77.5426 65.8715 79.9994 65.8604C82.4983 65.8429 84.9183 64.9833 86.8681 63.4203C88.818 61.8574 90.1838 59.6825 90.7447 57.2473H92.2244C94.1317 57.2106 95.96 56.479 97.3662 55.1899C98.7724 53.9008 99.6599 52.1429 99.8619 50.2459L101.315 34.1537C101.315 34.1324 101.315 34.111 101.315 34.0884C101.315 34.0658 101.322 34.023 101.323 33.9891C101.324 33.9551 101.329 33.94 101.329 33.9212ZM26.7091 61.0868C25.9325 61.0902 25.1632 60.9371 24.447 60.6368C23.7308 60.3364 23.0825 59.8948 22.5406 59.3385C21.9988 58.7821 21.5746 58.1223 21.2933 57.3984C21.012 56.6745 20.8794 55.9014 20.9034 55.1251C20.9547 53.5334 21.6205 52.0233 22.7611 50.9118C23.9016 49.8003 25.4283 49.1737 27.0209 49.1635C27.7975 49.1601 28.5669 49.3131 29.283 49.6135C29.9992 49.9139 30.6476 50.3554 31.1894 50.9118C31.7312 51.4682 32.1554 52.128 32.4367 52.8519C32.718 53.5758 32.8506 54.3489 32.8267 55.1251C32.7753 56.7169 32.1096 58.2269 30.969 59.3384C29.8284 60.45 28.3017 61.0766 26.7091 61.0868ZM80.1264 61.0868C79.3497 61.0902 78.5804 60.9371 77.8642 60.6368C77.148 60.3364 76.4997 59.8948 75.9579 59.3385C75.416 58.7821 74.9918 58.1223 74.7105 57.3984C74.4292 56.6745 74.2966 55.9014 74.3206 55.1251C74.3719 53.5334 75.0377 52.0233 76.1783 50.9118C77.3189 49.8003 78.8456 49.1737 80.4381 49.1635C81.2148 49.1601 81.9841 49.3131 82.7003 49.6135C83.4165 49.9139 84.0648 50.3554 84.6066 50.9118C85.1485 51.4682 85.5727 52.128 85.854 52.8519C86.1353 53.5758 86.2679 54.3489 86.2439 55.1251C86.1926 56.7169 85.5268 58.2269 84.3862 59.3384C83.2456 60.45 81.7189 61.0766 80.1264 61.0868ZM95.116 49.9367C95.036 50.621 94.7127 51.2538 94.2049 51.7196C93.6972 52.1854 93.0388 52.453 92.3501 52.4737H90.751C90.2231 50.1708 88.9273 48.1161 87.0765 46.6476C85.2257 45.1791 82.9302 44.3842 80.5676 44.3937C78.1627 44.4104 75.8281 45.2071 73.9147 46.6641C72.0013 48.1211 70.6125 50.1598 69.9569 52.4737H69.4653C69.1806 52.4801 68.8977 52.4265 68.6352 52.3162C68.3726 52.206 68.1363 52.0416 67.9416 51.8338C67.7509 51.6185 67.6076 51.3656 67.521 51.0914C67.4343 50.8172 67.4063 50.5279 67.4387 50.2422L70.4459 16.9263H77.3517L76.2579 29.0583C76.1577 29.9869 76.2557 30.9263 76.5455 31.8142C76.8353 32.7021 77.3103 33.5184 77.939 34.2091C78.5678 34.8998 79.336 35.4492 80.1929 35.8208C81.0498 36.1925 81.9759 36.378 82.9098 36.3652H96.3405L95.116 49.9367Z" fill="#FF6875"/>
</svg>
