<svg width="68" height="90" viewBox="0 0 68 90" fill="none" xmlns="http://www.w3.org/2000/svg">
<path d="M0.0278015 71.1995V89.7646H67.6954V71.1995C67.6927 69.1298 66.8694 67.1455 65.4058 65.6819C63.9422 64.2184 61.958 63.395 59.8882 63.3923H7.83502C5.76524 63.395 3.78098 64.2184 2.31742 65.6819C0.853861 67.1455 0.0304628 69.1298 0.0278015 71.1995H0.0278015ZM5.23262 71.1995C5.23361 70.5096 5.50812 69.8483 5.99594 69.3605C6.48377 68.8726 7.14513 68.5982 7.83502 68.5972H10.4374V84.5636H5.23262V71.1995ZM15.6435 68.5972H22.3733L33.8616 80.0855L45.3499 68.5972H52.0759V84.5636H15.6435V68.5972ZM62.4906 71.1995V84.5598H57.2858V68.5934H59.8882C60.5787 68.5944 61.2407 68.8694 61.7286 69.3581C62.2165 69.8467 62.4906 70.509 62.4906 71.1995ZM37.989 68.5972L33.8616 72.7245L29.7342 68.5972H37.989Z" fill="#FF6875"/>
<path d="M53.3332 52.9777H57.2896V47.7729H59.892C61.9618 47.7702 63.946 46.9468 65.4096 45.4832C66.8732 44.0197 67.6965 42.0354 67.6992 39.9656V34.7608C67.6989 25.787 64.1337 17.1809 57.7881 10.8357C51.4424 4.49056 42.836 0.926058 33.8623 0.926392C24.8885 0.926725 16.2824 4.49187 9.93719 10.8375C3.592 17.1832 0.0274986 25.7896 0.0278321 34.7633L0.0278321 39.9682C0.0304933 42.0379 0.853892 44.0222 2.31745 45.4857C3.78101 46.9493 5.76527 47.7727 7.83505 47.7754H11.7776C13.225 51.8746 15.785 55.4899 19.1709 58.2165C22.5568 60.943 26.6348 62.6732 30.9484 63.2132C35.2619 63.7532 39.6407 63.0818 43.5942 61.274C47.5477 59.4662 50.9199 56.5935 53.3332 52.9777ZM59.892 42.5668H57.1387C57.2356 41.7027 57.2843 40.8339 57.2846 39.9644V34.7596C57.2843 33.8901 57.2356 33.0212 57.1387 32.1572H59.887C60.5769 32.1582 61.2382 32.4327 61.726 32.9205C62.2139 33.4083 62.4884 34.0697 62.4894 34.7596V39.9644C62.4897 40.6551 62.2158 41.3178 61.7278 41.8067C61.2398 42.2956 60.5777 42.5708 59.887 42.5718L59.892 42.5668ZM33.8616 6.13435C40.1194 6.1424 46.2027 8.19695 51.1839 11.9847C56.1651 15.7724 59.7707 21.0853 61.4509 27.1133C60.9366 27.0085 60.4131 26.9559 59.8882 26.9561H55.9444C54.3298 22.3894 51.3392 18.4355 47.3843 15.639C43.4294 12.8424 38.7048 11.3407 33.861 11.3407C29.0173 11.3407 24.2926 12.8424 20.3377 15.639C16.3828 18.4355 13.3922 22.3894 11.7776 26.9561H7.83505C7.3102 26.9559 6.78665 27.0085 6.27235 27.1133C7.95254 21.0853 11.5582 15.7724 16.5394 11.9847C21.5206 8.19695 27.6039 6.1424 33.8616 6.13435ZM48.8072 24.3587C47.1245 26.7626 44.8881 28.7264 42.2869 30.0844C39.6857 31.4423 36.796 32.1545 33.8616 32.1609H15.8296C16.3507 28.5424 17.9487 25.1645 20.4158 22.4666C22.8829 19.7687 26.1049 17.8757 29.6625 17.034C33.2201 16.1923 36.9487 16.4408 40.3632 17.7472C43.7777 19.0536 46.72 21.3573 48.8072 24.3587ZM7.83505 42.5718C7.14516 42.5708 6.48381 42.2963 5.99598 41.8085C5.50815 41.3207 5.23364 40.6593 5.23265 39.9694V34.7646C5.23364 34.0747 5.50815 33.4133 5.99598 32.9255C6.48381 32.4377 7.14516 32.1632 7.83505 32.1622H10.5883C10.4914 33.0263 10.4427 33.8951 10.4425 34.7646V39.9694C10.4427 40.8389 10.4914 41.7077 10.5883 42.5718H7.83505ZM15.6423 39.9694V37.367H33.8616C37.1571 37.3609 40.4145 36.662 43.4224 35.3157C46.4303 33.9694 49.1216 32.0058 51.3216 29.5522C51.8274 31.243 52.0836 32.9985 52.0823 34.7633V39.9682C52.0851 42.6692 51.4837 45.3368 50.3222 47.7754H41.6689L39.3782 45.4898C37.9139 46.9539 35.928 47.7764 33.8572 47.7764C31.7865 47.7764 29.8006 46.9539 28.3362 45.4898L24.6564 49.1696C26.8713 51.3844 29.8107 52.726 32.9351 52.9482C36.0594 53.1704 39.1591 52.2582 41.6651 50.379V52.9777H46.5933C44.032 55.4867 40.787 57.1837 37.2651 57.8559C33.7432 58.5281 30.1013 58.1455 26.7959 56.7561C23.4906 55.3668 20.6691 53.0325 18.6851 50.0459C16.7011 47.0594 15.643 43.5536 15.6435 39.9682L15.6423 39.9694Z" fill="#FF6875"/>
</svg>
